<svg width="272" height="81" viewBox="0 0 272 81" fill="none" xmlns="http://www.w3.org/2000/svg">
<mask id="path-1-outside-1_1508_30633" maskUnits="userSpaceOnUse" x="0" y="0" width="272" height="81" fill="black">
<rect fill="white" width="272" height="81"/>
<path d="M66.5167 9.96074C66.2882 9.77556 66.058 9.59322 65.8262 9.41373C65.1999 8.92869 64.5622 8.46449 63.914 8.02117C63.5188 7.75093 63.1198 7.48845 62.7171 7.23375C47.1986 -2.58166 26.317 -0.807766 12.7414 12.569C-2.91379 27.9947 -2.91379 53.0049 12.7414 68.4307C28.3965 83.8564 53.7785 83.8564 69.4337 68.4307C83.0093 55.0539 84.8096 34.4783 74.8482 19.1872C74.0086 17.8983 73.086 16.6479 72.0807 15.4432L35.7359 51.2555L41.1495 56.5898L70.7087 27.4636C76.0285 39.2056 73.7958 53.464 64.0201 63.0964C51.3548 75.5761 30.8203 75.5761 18.155 63.0964C5.48965 50.6166 5.48965 30.383 18.155 17.9032C27.9306 8.2708 42.401 6.07075 54.3175 11.3126L16.4256 48.6494L21.8392 53.9837L66.5167 9.96074Z"/>
<path d="M107.753 33.9445H121.708V32.515H109.437V24.2315H118.836V22.7893H109.437V15.8842H120.821V14.4547H107.753V33.9445Z"/>
<path d="M138.98 33.9445V32.515H128.262V14.4547H126.578V33.9445H138.98Z"/>
<path d="M144.123 33.9445H158.078V32.515H145.807V24.2315H155.206V22.7893H145.807V15.8842H157.191V14.4547H144.123V33.9445Z"/>
<path d="M168.274 28.4562L170.611 33.9445H172.073L181.029 14.4547H179.345L171.42 31.3025L163.588 14.4547H161.773L168.274 28.4562Z"/>
<path d="M182.53 33.9445L184.684 29.2476H196.041L198.221 33.9445H199.984L192.973 18.756L190.963 14.4547H189.775L180.689 33.9445H182.53ZM185.363 27.8053L190.376 17.0968L195.375 27.8053H185.363Z"/>
<path d="M201.041 14.4547V15.897H207.268V33.9445H208.939V15.897H215.127V14.4547H201.041Z"/>
<path d="M221.184 33.9573H222.868V14.4547H221.184V33.9573Z"/>
<path d="M248.494 24.206C248.494 28.8391 244.251 32.6682 239.069 32.6682C233.873 32.6682 229.604 28.8519 229.604 24.206C229.604 19.5473 233.873 15.8332 239.069 15.8332C244.264 15.8332 248.494 19.5601 248.494 24.206ZM227.92 24.206C227.92 29.656 232.985 34.1105 239.069 34.1105C245.126 34.1105 250.165 29.6305 250.165 24.206C250.165 18.756 245.152 14.3909 239.069 14.3909C232.985 14.3909 227.92 18.756 227.92 24.206Z"/>
<path d="M255.622 33.9445H257.306V17.2627L269.695 33.9445H271V9.13235H269.342V30.8175L257.188 14.4547H255.635L255.622 33.9445Z"/>
<path d="M107.114 57.3034C107.114 62.7406 112.087 67.144 118.145 67.144C121.147 67.144 124.097 66.0208 126.186 64.1063C126.382 63.9404 126.447 63.851 126.447 63.6085V56.8311H119.724V58.2606H124.776V63.315C123.001 64.8083 120.573 65.7145 118.145 65.7145C112.962 65.7145 108.798 61.9365 108.798 57.3034C108.798 52.6575 113.027 48.8795 118.236 48.8795C120.873 48.8795 123.445 49.6708 125.05 51.4705L126.225 50.4239C124.345 48.4583 121.408 47.45 118.236 47.45C112.14 47.45 107.114 51.8406 107.114 57.3034Z"/>
<path d="M132.191 67.0547H133.888V49.0071H141.042C143.836 49.0071 146.199 51.0238 146.199 53.5382C146.199 56.0653 143.849 58.1075 141.042 58.1075H136.982C136.995 58.1968 138.497 59.5242 138.497 59.5242L146.277 67.0547H148.588L140.651 59.5242C140.925 59.5242 142.556 59.4987 143.679 59.052C146.251 58.0309 147.857 56.0143 147.857 53.5382C147.857 50.1941 144.776 47.5648 141.042 47.5648H132.191V67.0547Z"/>
<path d="M172.843 57.3161C172.843 61.9493 168.6 65.7783 163.418 65.7783C158.222 65.7783 153.953 61.962 153.953 57.3161C153.953 52.6575 158.222 48.9433 163.418 48.9433C168.613 48.9433 172.843 52.6702 172.843 57.3161ZM152.269 57.3161C152.269 62.7661 157.334 67.2206 163.418 67.2206C169.475 67.2206 174.514 62.7406 174.514 57.3161C174.514 51.8661 169.501 47.501 163.418 47.501C157.334 47.501 152.269 51.8661 152.269 57.3161Z"/>
<path d="M179.971 47.5648V60.6729C179.971 64.4509 183.443 67.2078 187.673 67.2078C191.902 67.2078 195.349 64.4637 195.349 60.6729V47.5648H193.691V60.6729C193.691 63.6341 190.989 65.7656 187.673 65.7656C184.357 65.7656 181.655 63.6341 181.655 60.6729V47.5648H179.971Z"/>
<path d="M202.777 67.0547V59.5115H209.931C213.664 59.5115 216.745 56.8822 216.745 53.5382C216.745 50.1686 213.69 47.5648 209.931 47.5648H201.093V67.0547H202.777ZM202.777 49.0071H209.931C212.75 49.0071 215.074 51.011 215.074 53.5382C215.074 56.0526 212.737 58.0947 209.931 58.0947H202.777V49.0071Z"/>
</mask>
<path d="M66.5167 9.96074C66.2882 9.77556 66.058 9.59322 65.8262 9.41373C65.1999 8.92869 64.5622 8.46449 63.914 8.02117C63.5188 7.75093 63.1198 7.48845 62.7171 7.23375C47.1986 -2.58166 26.317 -0.807766 12.7414 12.569C-2.91379 27.9947 -2.91379 53.0049 12.7414 68.4307C28.3965 83.8564 53.7785 83.8564 69.4337 68.4307C83.0093 55.0539 84.8096 34.4783 74.8482 19.1872C74.0086 17.8983 73.086 16.6479 72.0807 15.4432L35.7359 51.2555L41.1495 56.5898L70.7087 27.4636C76.0285 39.2056 73.7958 53.464 64.0201 63.0964C51.3548 75.5761 30.8203 75.5761 18.155 63.0964C5.48965 50.6166 5.48965 30.383 18.155 17.9032C27.9306 8.2708 42.401 6.07075 54.3175 11.3126L16.4256 48.6494L21.8392 53.9837L66.5167 9.96074Z" fill="#25231C"/>
<path d="M107.753 33.9445H121.708V32.515H109.437V24.2315H118.836V22.7893H109.437V15.8842H120.821V14.4547H107.753V33.9445Z" fill="#25231C"/>
<path d="M138.98 33.9445V32.515H128.262V14.4547H126.578V33.9445H138.98Z" fill="#25231C"/>
<path d="M144.123 33.9445H158.078V32.515H145.807V24.2315H155.206V22.7893H145.807V15.8842H157.191V14.4547H144.123V33.9445Z" fill="#25231C"/>
<path d="M168.274 28.4562L170.611 33.9445H172.073L181.029 14.4547H179.345L171.42 31.3025L163.588 14.4547H161.773L168.274 28.4562Z" fill="#25231C"/>
<path d="M182.53 33.9445L184.684 29.2476H196.041L198.221 33.9445H199.984L192.973 18.756L190.963 14.4547H189.775L180.689 33.9445H182.53ZM185.363 27.8053L190.376 17.0968L195.375 27.8053H185.363Z" fill="#25231C"/>
<path d="M201.041 14.4547V15.897H207.268V33.9445H208.939V15.897H215.127V14.4547H201.041Z" fill="#25231C"/>
<path d="M221.184 33.9573H222.868V14.4547H221.184V33.9573Z" fill="#25231C"/>
<path d="M248.494 24.206C248.494 28.8391 244.251 32.6682 239.069 32.6682C233.873 32.6682 229.604 28.8519 229.604 24.206C229.604 19.5473 233.873 15.8332 239.069 15.8332C244.264 15.8332 248.494 19.5601 248.494 24.206ZM227.92 24.206C227.92 29.656 232.985 34.1105 239.069 34.1105C245.126 34.1105 250.165 29.6305 250.165 24.206C250.165 18.756 245.152 14.3909 239.069 14.3909C232.985 14.3909 227.92 18.756 227.92 24.206Z" fill="#25231C"/>
<path d="M255.622 33.9445H257.306V17.2627L269.695 33.9445H271V9.13235H269.342V30.8175L257.188 14.4547H255.635L255.622 33.9445Z" fill="#25231C"/>
<path d="M107.114 57.3034C107.114 62.7406 112.087 67.144 118.145 67.144C121.147 67.144 124.097 66.0208 126.186 64.1063C126.382 63.9404 126.447 63.851 126.447 63.6085V56.8311H119.724V58.2606H124.776V63.315C123.001 64.8083 120.573 65.7145 118.145 65.7145C112.962 65.7145 108.798 61.9365 108.798 57.3034C108.798 52.6575 113.027 48.8795 118.236 48.8795C120.873 48.8795 123.445 49.6708 125.05 51.4705L126.225 50.4239C124.345 48.4583 121.408 47.45 118.236 47.45C112.14 47.45 107.114 51.8406 107.114 57.3034Z" fill="#25231C"/>
<path d="M132.191 67.0547H133.888V49.0071H141.042C143.836 49.0071 146.199 51.0238 146.199 53.5382C146.199 56.0653 143.849 58.1075 141.042 58.1075H136.982C136.995 58.1968 138.497 59.5242 138.497 59.5242L146.277 67.0547H148.588L140.651 59.5242C140.925 59.5242 142.556 59.4987 143.679 59.052C146.251 58.0309 147.857 56.0143 147.857 53.5382C147.857 50.1941 144.776 47.5648 141.042 47.5648H132.191V67.0547Z" fill="#25231C"/>
<path d="M172.843 57.3161C172.843 61.9493 168.6 65.7783 163.418 65.7783C158.222 65.7783 153.953 61.962 153.953 57.3161C153.953 52.6575 158.222 48.9433 163.418 48.9433C168.613 48.9433 172.843 52.6702 172.843 57.3161ZM152.269 57.3161C152.269 62.7661 157.334 67.2206 163.418 67.2206C169.475 67.2206 174.514 62.7406 174.514 57.3161C174.514 51.8661 169.501 47.501 163.418 47.501C157.334 47.501 152.269 51.8661 152.269 57.3161Z" fill="#25231C"/>
<path d="M179.971 47.5648V60.6729C179.971 64.4509 183.443 67.2078 187.673 67.2078C191.902 67.2078 195.349 64.4637 195.349 60.6729V47.5648H193.691V60.6729C193.691 63.6341 190.989 65.7656 187.673 65.7656C184.357 65.7656 181.655 63.6341 181.655 60.6729V47.5648H179.971Z" fill="#25231C"/>
<path d="M202.777 67.0547V59.5115H209.931C213.664 59.5115 216.745 56.8822 216.745 53.5382C216.745 50.1686 213.69 47.5648 209.931 47.5648H201.093V67.0547H202.777ZM202.777 49.0071H209.931C212.75 49.0071 215.074 51.011 215.074 53.5382C215.074 56.0526 212.737 58.0947 209.931 58.0947H202.777V49.0071Z" fill="#25231C"/>
<path d="M66.5167 9.96074C66.2882 9.77556 66.058 9.59322 65.8262 9.41373C65.1999 8.92869 64.5622 8.46449 63.914 8.02117C63.5188 7.75093 63.1198 7.48845 62.7171 7.23375C47.1986 -2.58166 26.317 -0.807766 12.7414 12.569C-2.91379 27.9947 -2.91379 53.0049 12.7414 68.4307C28.3965 83.8564 53.7785 83.8564 69.4337 68.4307C83.0093 55.0539 84.8096 34.4783 74.8482 19.1872C74.0086 17.8983 73.086 16.6479 72.0807 15.4432L35.7359 51.2555L41.1495 56.5898L70.7087 27.4636C76.0285 39.2056 73.7958 53.464 64.0201 63.0964C51.3548 75.5761 30.8203 75.5761 18.155 63.0964C5.48965 50.6166 5.48965 30.383 18.155 17.9032C27.9306 8.2708 42.401 6.07075 54.3175 11.3126L16.4256 48.6494L21.8392 53.9837L66.5167 9.96074Z" stroke="#25231C" stroke-width="0.625" mask="url(#path-1-outside-1_1508_30633)"/>
<path d="M107.753 33.9445H121.708V32.515H109.437V24.2315H118.836V22.7893H109.437V15.8842H120.821V14.4547H107.753V33.9445Z" stroke="#25231C" stroke-width="0.625" mask="url(#path-1-outside-1_1508_30633)"/>
<path d="M138.98 33.9445V32.515H128.262V14.4547H126.578V33.9445H138.98Z" stroke="#25231C" stroke-width="0.625" mask="url(#path-1-outside-1_1508_30633)"/>
<path d="M144.123 33.9445H158.078V32.515H145.807V24.2315H155.206V22.7893H145.807V15.8842H157.191V14.4547H144.123V33.9445Z" stroke="#25231C" stroke-width="0.625" mask="url(#path-1-outside-1_1508_30633)"/>
<path d="M168.274 28.4562L170.611 33.9445H172.073L181.029 14.4547H179.345L171.42 31.3025L163.588 14.4547H161.773L168.274 28.4562Z" stroke="#25231C" stroke-width="0.625" mask="url(#path-1-outside-1_1508_30633)"/>
<path d="M182.53 33.9445L184.684 29.2476H196.041L198.221 33.9445H199.984L192.973 18.756L190.963 14.4547H189.775L180.689 33.9445H182.53ZM185.363 27.8053L190.376 17.0968L195.375 27.8053H185.363Z" stroke="#25231C" stroke-width="0.625" mask="url(#path-1-outside-1_1508_30633)"/>
<path d="M201.041 14.4547V15.897H207.268V33.9445H208.939V15.897H215.127V14.4547H201.041Z" stroke="#25231C" stroke-width="0.625" mask="url(#path-1-outside-1_1508_30633)"/>
<path d="M221.184 33.9573H222.868V14.4547H221.184V33.9573Z" stroke="#25231C" stroke-width="0.625" mask="url(#path-1-outside-1_1508_30633)"/>
<path d="M248.494 24.206C248.494 28.8391 244.251 32.6682 239.069 32.6682C233.873 32.6682 229.604 28.8519 229.604 24.206C229.604 19.5473 233.873 15.8332 239.069 15.8332C244.264 15.8332 248.494 19.5601 248.494 24.206ZM227.92 24.206C227.92 29.656 232.985 34.1105 239.069 34.1105C245.126 34.1105 250.165 29.6305 250.165 24.206C250.165 18.756 245.152 14.3909 239.069 14.3909C232.985 14.3909 227.92 18.756 227.92 24.206Z" stroke="#25231C" stroke-width="0.625" mask="url(#path-1-outside-1_1508_30633)"/>
<path d="M255.622 33.9445H257.306V17.2627L269.695 33.9445H271V9.13235H269.342V30.8175L257.188 14.4547H255.635L255.622 33.9445Z" stroke="#25231C" stroke-width="0.625" mask="url(#path-1-outside-1_1508_30633)"/>
<path d="M107.114 57.3034C107.114 62.7406 112.087 67.144 118.145 67.144C121.147 67.144 124.097 66.0208 126.186 64.1063C126.382 63.9404 126.447 63.851 126.447 63.6085V56.8311H119.724V58.2606H124.776V63.315C123.001 64.8083 120.573 65.7145 118.145 65.7145C112.962 65.7145 108.798 61.9365 108.798 57.3034C108.798 52.6575 113.027 48.8795 118.236 48.8795C120.873 48.8795 123.445 49.6708 125.05 51.4705L126.225 50.4239C124.345 48.4583 121.408 47.45 118.236 47.45C112.14 47.45 107.114 51.8406 107.114 57.3034Z" stroke="#25231C" stroke-width="0.625" mask="url(#path-1-outside-1_1508_30633)"/>
<path d="M132.191 67.0547H133.888V49.0071H141.042C143.836 49.0071 146.199 51.0238 146.199 53.5382C146.199 56.0653 143.849 58.1075 141.042 58.1075H136.982C136.995 58.1968 138.497 59.5242 138.497 59.5242L146.277 67.0547H148.588L140.651 59.5242C140.925 59.5242 142.556 59.4987 143.679 59.052C146.251 58.0309 147.857 56.0143 147.857 53.5382C147.857 50.1941 144.776 47.5648 141.042 47.5648H132.191V67.0547Z" stroke="#25231C" stroke-width="0.625" mask="url(#path-1-outside-1_1508_30633)"/>
<path d="M172.843 57.3161C172.843 61.9493 168.6 65.7783 163.418 65.7783C158.222 65.7783 153.953 61.962 153.953 57.3161C153.953 52.6575 158.222 48.9433 163.418 48.9433C168.613 48.9433 172.843 52.6702 172.843 57.3161ZM152.269 57.3161C152.269 62.7661 157.334 67.2206 163.418 67.2206C169.475 67.2206 174.514 62.7406 174.514 57.3161C174.514 51.8661 169.501 47.501 163.418 47.501C157.334 47.501 152.269 51.8661 152.269 57.3161Z" stroke="#25231C" stroke-width="0.625" mask="url(#path-1-outside-1_1508_30633)"/>
<path d="M179.971 47.5648V60.6729C179.971 64.4509 183.443 67.2078 187.673 67.2078C191.902 67.2078 195.349 64.4637 195.349 60.6729V47.5648H193.691V60.6729C193.691 63.6341 190.989 65.7656 187.673 65.7656C184.357 65.7656 181.655 63.6341 181.655 60.6729V47.5648H179.971Z" stroke="#25231C" stroke-width="0.625" mask="url(#path-1-outside-1_1508_30633)"/>
<path d="M202.777 67.0547V59.5115H209.931C213.664 59.5115 216.745 56.8822 216.745 53.5382C216.745 50.1686 213.69 47.5648 209.931 47.5648H201.093V67.0547H202.777ZM202.777 49.0071H209.931C212.75 49.0071 215.074 51.011 215.074 53.5382C215.074 56.0526 212.737 58.0947 209.931 58.0947H202.777V49.0071Z" stroke="#25231C" stroke-width="0.625" mask="url(#path-1-outside-1_1508_30633)"/>
</svg>
